<svg xmlns="http://www.w3.org/2000/svg" xmlns:xlink="http://www.w3.org/1999/xlink" fill="none" version="1.1" width="32" height="32" viewBox="0 0 32 32"><defs><clipPath id="master_svg0_3_09682/3_09659"><rect x="0" y="0" width="32" height="32" rx="0"/></clipPath></defs><g><rect x="1" y="1" width="30" height="30" rx="15" fill="#000000" fill-opacity="0.25"/><g clip-path="url(#master_svg0_3_09682/3_09659)"><g><path d="M26.82740654296875,23.8625C26.23790654296875,22.4662,25.38240654296875,21.1978,24.30870654296875,20.1281C23.23810654296875,19.055300000000003,21.97000654296875,18.2,20.57430654296875,17.6094C20.56180654296875,17.603099999999998,20.54930654296875,17.6,20.53680654296875,17.5937C22.48370654296875,16.1875,23.74930654296875,13.8969,23.74930654296875,11.3125C23.74930654296875,7.03125,20.28050654296875,3.5625,15.99930654296875,3.5625C11.71803654296875,3.5625,8.24928654296875,7.03125,8.24928654296875,11.3125C8.24928654296875,13.8969,9.514906542968749,16.1875,11.461786542968749,17.596899999999998C11.44928654296875,17.603099999999998,11.43678654296875,17.6062,11.424286542968751,17.6125C10.024286542968749,18.2031,8.768036542968751,19.05,7.68990654296875,20.1313C6.61712654296875,21.2018,5.76179654296875,22.4699,5.17115954296875,23.8656C4.59091654296875,25.232,4.27797824296875,26.697,4.24928468676875,28.1812C4.24845060796875,28.2146,4.25430069296875,28.2478,4.26649044296875,28.2788C4.27868014296875,28.3099,4.29696274296875,28.3382,4.32026094296875,28.3621C4.34355914296875,28.386,4.37140154296875,28.4049,4.40214754296875,28.4179C4.43289354296875,28.4308,4.46592154296875,28.4375,4.49928454296875,28.4375C4.49928454296875,28.4375,6.3742865429687505,28.4375,6.3742865429687505,28.4375C6.51178654296875,28.4375,6.62115654296875,28.3281,6.6242865429687505,28.1938C6.6867865429687505,25.7813,7.6555365429687505,23.5219,9.368036542968749,21.8094C11.139906542968749,20.0375,13.49303654296875,19.0625,15.99930654296875,19.0625C18.50550654296875,19.0625,20.85870654296875,20.0375,22.63050654296875,21.8094C24.34300654296875,23.5219,25.31180654296875,25.7813,25.37430654296875,28.1938C25.37740654296875,28.3313,25.48680654296875,28.4375,25.62430654296875,28.4375C25.62430654296875,28.4375,27.49930654296875,28.4375,27.49930654296875,28.4375C27.53260654296875,28.4375,27.56570654296875,28.4308,27.59640654296875,28.4179C27.62720654296875,28.4049,27.65500654296875,28.386,27.67830654296875,28.3621C27.70160654296875,28.3382,27.71990654296875,28.3099,27.73210654296875,28.2788C27.74430654296875,28.2478,27.75010654296875,28.2146,27.74930654296875,28.1812C27.71800654296875,26.6875,27.40870654296875,25.2344,26.82740654296875,23.8625C26.82740654296875,23.8625,26.82740654296875,23.8625,26.82740654296875,23.8625ZM15.99930654296875,16.6875C14.56490654296875,16.6875,13.21490654296875,16.1281,12.19928654296875,15.1125C11.18365654296875,14.0969,10.62428654296875,12.74688,10.62428654296875,11.3125C10.62428654296875,9.878129999999999,11.18365654296875,8.528120000000001,12.19928654296875,7.5125C13.21490654296875,6.4968699999999995,14.56490654296875,5.9375,15.99930654296875,5.9375C17.43370654296875,5.9375,18.78370654296875,6.4968699999999995,19.79930654296875,7.5125C20.81490654296875,8.528120000000001,21.37430654296875,9.878129999999999,21.37430654296875,11.3125C21.37430654296875,12.74688,20.81490654296875,14.0969,19.79930654296875,15.1125C18.78370654296875,16.1281,17.43370654296875,16.6875,15.99930654296875,16.6875Z" fill="#FFFFFF" fill-opacity="1"/></g></g></g></svg>