<svg xmlns="http://www.w3.org/2000/svg" xmlns:xlink="http://www.w3.org/1999/xlink" fill="none" version="1.1" width="16" height="16" viewBox="0 0 16 16"><defs><clipPath id="master_svg0_3_57"><rect x="0" y="0" width="16" height="16" rx="0"/></clipPath></defs><g clip-path="url(#master_svg0_3_57)"><g><path d="M4.666581953125,1.8333358764648438C6.231391953125,1.8333358764648438,7.499921953125,3.101865876464844,7.499921953125,4.666665876464844L7.499921953125,7.500005876464844L4.666581953125,7.500005876464844C3.101781953125,7.500005876464844,1.833251953125,6.2314758764648435,1.833251953125,4.666665876464844C1.833251953125,3.101865876464844,3.101781953125,1.8333361148838438,4.666581953125,1.8333358764648438ZM6.499921953125,6.500005876464844L6.499921953125,4.666665876464844C6.499921953125,3.6541458764648436,5.679111953125,2.8333358764648438,4.666581953125,2.8333358764648438C3.654061953125,2.8333358764648438,2.833251953125,3.6541458764648436,2.833251953125,4.666665876464844C2.833251953125,5.679195876464844,3.654061953125,6.500005876464844,4.666581953125,6.500005876464844L6.499921953125,6.500005876464844ZM11.333251953125,1.8333358764648438C12.898051953125,1.8333361148838438,14.166551953125,3.101865876464844,14.166551953125,4.666665876464844C14.166551953125,6.2314758764648435,12.898051953125,7.500005876464844,11.333251953125,7.500005876464844L8.499921953125,7.500005876464844L8.499921953125,4.666665876464844C8.499921953125,3.101865876464844,9.768441953125,1.8333358764648438,11.333251953125,1.8333358764648438ZM9.499921953125,6.500005876464844L11.333251953125,6.500005876464844C12.345751953125,6.500005876464844,13.166551953125,5.679195876464844,13.166551953125,4.666665876464844C13.166551953125,3.6541458764648436,12.345751953125,2.8333358764648438,11.333251953125,2.8333358764648438C10.320731953125,2.8333358764648438,9.499921953125,3.6541458764648436,9.499921953125,4.666665876464844L9.499921953125,6.500005876464844ZM4.666581953125,14.166635876464843C3.101781953125,14.166635876464843,1.833251953125,12.898135876464844,1.833251953125,11.333335876464844C1.833251953125,9.768525876464844,3.101781953125,8.500005876464844,4.666581953125,8.500005876464844L7.499921953125,8.500005876464844L7.499921953125,11.333335876464844C7.499921953125,12.898135876464844,6.231391953125,14.166635876464843,4.666581953125,14.166635876464843ZM6.499921953125,9.500005876464844L4.666581953125,9.500005876464844C3.654061953125,9.500005876464844,2.833251953125,10.320815876464843,2.833251953125,11.333335876464844C2.833251953125,12.345835876464843,3.654061953125,13.166635876464843,4.666581953125,13.166635876464843C5.679111953125,13.166635876464843,6.499921953125,12.345835876464843,6.499921953125,11.333335876464844L6.499921953125,9.500005876464844ZM11.333251953125,14.166635876464843C9.768441953125,14.166635876464843,8.499921953125,12.898135876464844,8.499921953125,11.333335876464844L8.499921953125,8.500005876464844L11.333251953125,8.500005876464844C12.898051953125,8.500005876464844,14.166551953125,9.768525876464844,14.166551953125,11.333335876464844C14.166551953125,12.898135876464844,12.898051953125,14.166635876464843,11.333251953125,14.166635876464843ZM9.499921953125,9.500005876464844L9.499921953125,11.333335876464844C9.499921953125,12.345835876464843,10.320731953125,13.166635876464843,11.333251953125,13.166635876464843C12.345751953125,13.166635876464843,13.166551953125,12.345835876464843,13.166551953125,11.333335876464844C13.166551953125,10.320815876464843,12.345751953125,9.500005876464844,11.333251953125,9.500005876464844L9.499921953125,9.500005876464844Z" fill="#110101" fill-opacity="1" style="mix-blend-mode:passthrough"/></g></g></svg>