<svg xmlns="http://www.w3.org/2000/svg" xmlns:xlink="http://www.w3.org/1999/xlink" fill="none" version="1.1" width="16" height="16" viewBox="0 0 16 16"><defs><clipPath id="master_svg0_3_53"><rect x="0" y="0" width="16" height="16" rx="0"/></clipPath></defs><g clip-path="url(#master_svg0_3_53)"><g><path d="M2.33324078125,14.6667C2.14915078125,14.6667,1.99991078125,14.5174,1.99991078125,14.3333L1.99991078125,10.86104C0.61176918125,9.28913,0.27400478125,7.04947,1.13682978125,5.13809C1.99965078125,3.2267,3.90280078125,1.99862432,5.99991078125,2.000000238419L9.99991078125,2.000000238419C12.94545078125,2.000000238419,15.33325078125,4.38781,15.33325078125,7.33333C15.33325078125,10.27885,12.94545078125,12.6667,9.99991078125,12.6667L5.99991078125,12.6667C5.54274078125,12.6669,5.08743078125,12.6085,4.64512078125,12.4929L2.56897078125,14.5691C2.50648078125,14.6316,2.4216907812499997,14.6667,2.33324078125,14.6667ZM5.99991078125,2.666667C3.42699078125,2.666667,1.33324478125,4.76042,1.33324478125,7.33333C1.33174578125,8.51021,1.77641078125,9.6439,2.5776207812500003,10.50594C2.63480078125,10.56759,2.66658078125,10.64855,2.66658078125,10.7326L2.66658078125,13.5286L4.31241078125,11.88281C4.399330781250001,11.79589,4.52705078125,11.76386,4.64470078125,11.79948C5.08412078125,11.93258,5.54077078125,12.0001,5.99991078125,12L9.99991078125,12C12.57285078125,12,14.66655078125,9.90625,14.66655078125,7.33333C14.66655078125,4.76042,12.57285078125,2.666667,9.99991078125,2.666667L5.99991078125,2.666667Z" fill="#110101" fill-opacity="1" style="mix-blend-mode:passthrough"/></g><g><path d="M11.91068359375,7.2247907714843755L8.87268359375,7.2247907714843755L8.87268359375,10.276790771484375L8.22868359375,10.276790771484375L8.22868359375,7.2247907714843755L5.19068359375,7.2247907714843755L5.19068359375,6.594790771484375L8.22868359375,6.594790771484375L8.22868359375,3.5567907714843754L8.87268359375,3.5567907714843754L8.87268359375,6.594790771484375L11.91068359375,6.594790771484375L11.91068359375,7.2247907714843755Z" fill="#110101" fill-opacity="1"/></g></g></svg>