<svg xmlns="http://www.w3.org/2000/svg" xmlns:xlink="http://www.w3.org/1999/xlink" fill="none" version="1.1" width="14.062499046325684" height="11.632781982421875" viewBox="0 0 14.062499046325684 11.632781982421875"><g><path d="M13.2353,1.65441L0.827203,1.65441C0.370391,1.65441,0,1.28403,0,0.827203C0,0.370375,0.370391,0,0.827203,0L13.2353,0C13.6921,0,14.0625,0.370391,14.0625,0.827203C14.0625,1.28403,13.6921,1.65441,13.2353,1.65441ZM9.09928,6.6437L0.827203,6.6437C0.370391,6.6437,0,6.27331,0,5.8165C0,5.35967,0.370391,4.9893,0.827203,4.9893L9.09928,4.9893C9.55609,4.9893,9.92647,5.35969,9.92647,5.8165C9.92647,6.27331,9.55609,6.6437,9.09928,6.6437ZM11.5809,11.6328L0.827203,11.6328C0.370391,11.6328,0,11.2624,0,10.8056C0,10.3488,0.370391,9.97839,0.827203,9.97839L11.5809,9.97839C12.0377,9.97839,12.4081,10.3488,12.4081,10.8056C12.4081,11.2624,12.0377,11.6328,11.5809,11.6328Z" fill="#110101" fill-opacity="1" style="mix-blend-mode:passthrough"/></g></svg>